<?xml version="1.0" encoding="UTF-8"?>
<svg id="Layer_2" data-name="Layer 2" xmlns="http://www.w3.org/2000/svg" xmlns:xlink="http://www.w3.org/1999/xlink" viewBox="0 0 300 300">
  <defs>
    <style>
      .cls-1 {
        stroke: url(#linear-gradient-2);
      }

      .cls-1, .cls-2, .cls-3, .cls-4, .cls-5, .cls-6, .cls-7, .cls-8, .cls-9, .cls-10, .cls-11, .cls-12, .cls-13, .cls-14, .cls-15, .cls-16, .cls-17, .cls-18, .cls-19, .cls-20, .cls-21, .cls-22, .cls-23, .cls-24, .cls-25, .cls-26, .cls-27, .cls-28, .cls-29, .cls-30, .cls-31, .cls-32, .cls-33, .cls-34, .cls-35, .cls-36, .cls-37, .cls-38, .cls-39, .cls-40, .cls-41, .cls-42, .cls-43, .cls-44, .cls-45, .cls-46, .cls-47, .cls-48, .cls-49, .cls-50, .cls-51, .cls-52, .cls-53, .cls-54, .cls-55, .cls-56, .cls-57, .cls-58, .cls-59, .cls-60, .cls-61, .cls-62, .cls-63, .cls-64, .cls-65, .cls-66, .cls-67, .cls-68, .cls-69, .cls-70, .cls-71, .cls-72, .cls-73, .cls-74, .cls-75, .cls-76, .cls-77, .cls-78, .cls-79, .cls-80, .cls-81, .cls-82, .cls-83, .cls-84, .cls-85, .cls-86, .cls-87, .cls-88, .cls-89, .cls-90, .cls-91, .cls-92, .cls-93, .cls-94, .cls-95, .cls-96, .cls-97, .cls-98, .cls-99, .cls-100, .cls-101, .cls-102, .cls-103, .cls-104, .cls-105, .cls-106, .cls-107, .cls-108, .cls-109, .cls-110, .cls-111, .cls-112, .cls-113, .cls-114, .cls-115, .cls-116, .cls-117, .cls-118, .cls-119, .cls-120, .cls-121, .cls-122, .cls-123, .cls-124, .cls-125, .cls-126, .cls-127, .cls-128, .cls-129, .cls-130, .cls-131, .cls-132, .cls-133, .cls-134, .cls-135, .cls-136, .cls-137, .cls-138, .cls-139, .cls-140, .cls-141, .cls-142, .cls-143, .cls-144, .cls-145, .cls-146, .cls-147, .cls-148, .cls-149 {
        fill: none;
      }

      .cls-1, .cls-2, .cls-3, .cls-4, .cls-5, .cls-6, .cls-7, .cls-8, .cls-9, .cls-10, .cls-11, .cls-12, .cls-13, .cls-14, .cls-15, .cls-16, .cls-17, .cls-18, .cls-19, .cls-20, .cls-21, .cls-22, .cls-23, .cls-24, .cls-25, .cls-26, .cls-27, .cls-28, .cls-29, .cls-30, .cls-31, .cls-32, .cls-33, .cls-34, .cls-35, .cls-36, .cls-37, .cls-38, .cls-39, .cls-40, .cls-41, .cls-42, .cls-43, .cls-44, .cls-45, .cls-46, .cls-47, .cls-48, .cls-49, .cls-50, .cls-51, .cls-52, .cls-53, .cls-54, .cls-55, .cls-56, .cls-57, .cls-58, .cls-59, .cls-60, .cls-61, .cls-62, .cls-63, .cls-64, .cls-65, .cls-66, .cls-67, .cls-68, .cls-69, .cls-70, .cls-71, .cls-72, .cls-73, .cls-74, .cls-75, .cls-76, .cls-77, .cls-78, .cls-79, .cls-80, .cls-81, .cls-82, .cls-83, .cls-84, .cls-85, .cls-86, .cls-87, .cls-88, .cls-89, .cls-90, .cls-91, .cls-92, .cls-93, .cls-94, .cls-95, .cls-96, .cls-97, .cls-98, .cls-99, .cls-101, .cls-102, .cls-103, .cls-104, .cls-105, .cls-106, .cls-107, .cls-108, .cls-109, .cls-110, .cls-111, .cls-112, .cls-113, .cls-114, .cls-115, .cls-116, .cls-117, .cls-118, .cls-119, .cls-120, .cls-121, .cls-122, .cls-123, .cls-124, .cls-125, .cls-126, .cls-127, .cls-128, .cls-129, .cls-130, .cls-131, .cls-132, .cls-133, .cls-134, .cls-135, .cls-136, .cls-137, .cls-138, .cls-139, .cls-140, .cls-141, .cls-142, .cls-143, .cls-144, .cls-145, .cls-146, .cls-147, .cls-148, .cls-149 {
        stroke-miterlimit: 10;
      }

      .cls-2 {
        stroke: url(#linear-gradient-3);
      }

      .cls-3 {
        stroke: url(#linear-gradient-140);
      }

      .cls-4 {
        stroke: url(#linear-gradient-129);
      }

      .cls-5 {
        stroke: url(#linear-gradient-28);
      }

      .cls-6 {
        stroke: url(#linear-gradient-127);
      }

      .cls-7 {
        stroke: url(#linear-gradient-64);
      }

      .cls-8 {
        stroke: url(#linear-gradient-135);
      }

      .cls-9 {
        stroke: url(#linear-gradient-9);
      }

      .cls-10 {
        stroke: url(#linear-gradient-89);
      }

      .cls-11 {
        stroke: url(#linear-gradient-37);
      }

      .cls-12 {
        stroke: url(#linear-gradient-76);
      }

      .cls-13 {
        stroke: url(#linear-gradient-128);
      }

      .cls-14 {
        stroke: url(#linear-gradient-53);
      }

      .cls-150 {
        fill: #e63462;
      }

      .cls-15 {
        stroke: url(#linear-gradient-58);
      }

      .cls-16 {
        stroke: url(#linear-gradient-22);
      }

      .cls-17 {
        stroke: url(#linear-gradient-19);
      }

      .cls-18 {
        stroke: url(#linear-gradient-106);
      }

      .cls-19 {
        stroke: url(#linear-gradient-120);
      }

      .cls-20 {
        stroke: url(#linear-gradient-133);
      }

      .cls-21 {
        stroke: url(#linear-gradient-70);
      }

      .cls-22 {
        stroke: url(#linear-gradient-139);
      }

      .cls-23 {
        stroke: url(#linear-gradient-26);
      }

      .cls-24 {
        stroke: url(#linear-gradient-4);
      }

      .cls-25 {
        stroke: url(#linear-gradient-61);
      }

      .cls-26 {
        stroke: url(#linear-gradient-6);
      }

      .cls-27 {
        stroke: url(#linear-gradient-18);
      }

      .cls-28 {
        stroke: url(#linear-gradient-105);
      }

      .cls-29 {
        stroke: url(#linear-gradient-74);
      }

      .cls-30 {
        stroke: url(#linear-gradient-132);
      }

      .cls-31 {
        stroke: url(#linear-gradient-50);
      }

      .cls-32 {
        stroke: url(#linear-gradient-148);
      }

      .cls-33 {
        stroke: url(#linear-gradient-78);
      }

      .cls-151 {
        opacity: .2;
      }

      .cls-34 {
        stroke: url(#linear-gradient-144);
      }

      .cls-35 {
        stroke: url(#linear-gradient-111);
      }

      .cls-36 {
        stroke: url(#linear-gradient-130);
      }

      .cls-152 {
        fill: #333745;
      }

      .cls-37 {
        stroke: url(#linear-gradient-87);
      }

      .cls-38 {
        stroke: url(#linear-gradient-119);
      }

      .cls-39 {
        stroke: url(#linear-gradient-13);
      }

      .cls-40 {
        stroke: url(#linear-gradient-63);
      }

      .cls-41 {
        stroke: url(#linear-gradient-82);
      }

      .cls-42 {
        stroke: url(#linear-gradient-29);
      }

      .cls-153 {
        filter: url(#drop-shadow-1);
      }

      .cls-43 {
        stroke: url(#linear-gradient-16);
      }

      .cls-44 {
        stroke: url(#linear-gradient-83);
      }

      .cls-45 {
        stroke: url(#linear-gradient-141);
      }

      .cls-46 {
        stroke: url(#linear-gradient-69);
      }

      .cls-47 {
        stroke: url(#linear-gradient-17);
      }

      .cls-48 {
        stroke: url(#linear-gradient-48);
      }

      .cls-49 {
        stroke: url(#linear-gradient-134);
      }

      .cls-50 {
        stroke: url(#linear-gradient-55);
      }

      .cls-51 {
        stroke: url(#linear-gradient-118);
      }

      .cls-52 {
        stroke: url(#linear-gradient-100);
      }

      .cls-53 {
        stroke: url(#linear-gradient-30);
      }

      .cls-54 {
        stroke: url(#linear-gradient-52);
      }

      .cls-55 {
        stroke: url(#linear-gradient-95);
      }

      .cls-56 {
        stroke: url(#linear-gradient-116);
      }

      .cls-57 {
        stroke: url(#linear-gradient-79);
      }

      .cls-58 {
        stroke: url(#linear-gradient-102);
      }

      .cls-59 {
        stroke: url(#linear-gradient-122);
      }

      .cls-60 {
        stroke: url(#linear-gradient-101);
      }

      .cls-61 {
        stroke: url(#linear-gradient-7);
      }

      .cls-62 {
        stroke: url(#linear-gradient-39);
      }

      .cls-63 {
        stroke: url(#linear-gradient-90);
      }

      .cls-64 {
        stroke: url(#linear-gradient-94);
      }

      .cls-65 {
        stroke: url(#linear-gradient-21);
      }

      .cls-66 {
        stroke: url(#linear-gradient-92);
      }

      .cls-67 {
        stroke: url(#linear-gradient-12);
      }

      .cls-68 {
        stroke: url(#linear-gradient-67);
      }

      .cls-69 {
        stroke: url(#linear-gradient-5);
      }

      .cls-70 {
        stroke: url(#linear-gradient-38);
      }

      .cls-71 {
        stroke: url(#linear-gradient-85);
      }

      .cls-72 {
        stroke: url(#linear-gradient-59);
      }

      .cls-73 {
        stroke: url(#linear-gradient-138);
      }

      .cls-74 {
        stroke: url(#linear-gradient-91);
      }

      .cls-75 {
        stroke: url(#linear-gradient-103);
      }

      .cls-76 {
        stroke: url(#linear-gradient-60);
      }

      .cls-77 {
        stroke: url(#linear-gradient-66);
      }

      .cls-78 {
        stroke: url(#linear-gradient-51);
      }

      .cls-79 {
        stroke: url(#linear-gradient-54);
      }

      .cls-80 {
        stroke: url(#linear-gradient-125);
      }

      .cls-81 {
        stroke: url(#linear-gradient-98);
      }

      .cls-82 {
        stroke: url(#linear-gradient-32);
      }

      .cls-83 {
        stroke: url(#linear-gradient-107);
      }

      .cls-84 {
        stroke: url(#linear-gradient-114);
      }

      .cls-85 {
        stroke: url(#linear-gradient-123);
      }

      .cls-86 {
        stroke: url(#linear-gradient-36);
      }

      .cls-87 {
        stroke: url(#linear-gradient-112);
      }

      .cls-88 {
        stroke: url(#linear-gradient-81);
      }

      .cls-89 {
        stroke: url(#linear-gradient-84);
      }

      .cls-90 {
        stroke: url(#linear-gradient-147);
      }

      .cls-154 {
        clip-path: url(#clippath);
      }

      .cls-91 {
        stroke: url(#linear-gradient-20);
      }

      .cls-92 {
        stroke: url(#linear-gradient-73);
      }

      .cls-93 {
        stroke: url(#linear-gradient-24);
      }

      .cls-94 {
        stroke: url(#linear-gradient-57);
      }

      .cls-95 {
        stroke: url(#linear-gradient-33);
      }

      .cls-96 {
        stroke: url(#linear-gradient-31);
      }

      .cls-97 {
        stroke: url(#linear-gradient-96);
      }

      .cls-98 {
        stroke: url(#linear-gradient);
      }

      .cls-99 {
        stroke: url(#linear-gradient-99);
      }

      .cls-101 {
        stroke: url(#linear-gradient-25);
      }

      .cls-102 {
        stroke: url(#linear-gradient-97);
      }

      .cls-103 {
        stroke: url(#linear-gradient-68);
      }

      .cls-104 {
        stroke: url(#linear-gradient-35);
      }

      .cls-105 {
        stroke: url(#linear-gradient-62);
      }

      .cls-106 {
        stroke: url(#linear-gradient-137);
      }

      .cls-107 {
        stroke: url(#linear-gradient-109);
      }

      .cls-108 {
        stroke: url(#linear-gradient-72);
      }

      .cls-109 {
        stroke: url(#linear-gradient-108);
      }

      .cls-110 {
        stroke: url(#linear-gradient-145);
      }

      .cls-111 {
        stroke: url(#linear-gradient-75);
      }

      .cls-112 {
        stroke: url(#linear-gradient-46);
      }

      .cls-113 {
        stroke: url(#linear-gradient-110);
      }

      .cls-114 {
        stroke: url(#linear-gradient-86);
      }

      .cls-115 {
        stroke: url(#linear-gradient-115);
      }

      .cls-116 {
        stroke: url(#linear-gradient-71);
      }

      .cls-117 {
        stroke: url(#linear-gradient-131);
      }

      .cls-118 {
        stroke: url(#linear-gradient-49);
      }

      .cls-119 {
        stroke: url(#linear-gradient-27);
      }

      .cls-120 {
        stroke: url(#linear-gradient-23);
      }

      .cls-121 {
        stroke: url(#linear-gradient-14);
      }

      .cls-122 {
        stroke: url(#linear-gradient-41);
      }

      .cls-123 {
        stroke: url(#linear-gradient-44);
      }

      .cls-124 {
        stroke: url(#linear-gradient-124);
      }

      .cls-125 {
        stroke: url(#linear-gradient-42);
      }

      .cls-126 {
        stroke: url(#linear-gradient-34);
      }

      .cls-127 {
        stroke: url(#linear-gradient-113);
      }

      .cls-128 {
        stroke: url(#linear-gradient-88);
      }

      .cls-129 {
        stroke: url(#linear-gradient-11);
      }

      .cls-130 {
        stroke: url(#linear-gradient-8);
      }

      .cls-131 {
        stroke: url(#linear-gradient-47);
      }

      .cls-132 {
        stroke: url(#linear-gradient-80);
      }

      .cls-133 {
        stroke: url(#linear-gradient-65);
      }

      .cls-134 {
        stroke: url(#linear-gradient-126);
      }

      .cls-135 {
        stroke: url(#linear-gradient-40);
      }

      .cls-136 {
        stroke: url(#linear-gradient-10);
      }

      .cls-137 {
        stroke: url(#linear-gradient-143);
      }

      .cls-138 {
        stroke: url(#linear-gradient-15);
      }

      .cls-139 {
        stroke: url(#linear-gradient-43);
      }

      .cls-140 {
        stroke: url(#linear-gradient-117);
      }

      .cls-141 {
        stroke: url(#linear-gradient-136);
      }

      .cls-142 {
        stroke: url(#linear-gradient-77);
      }

      .cls-143 {
        stroke: url(#linear-gradient-93);
      }

      .cls-155 {
        fill: #eef5db;
      }

      .cls-144 {
        stroke: url(#linear-gradient-121);
      }

      .cls-145 {
        stroke: url(#linear-gradient-146);
      }

      .cls-146 {
        stroke: url(#linear-gradient-142);
      }

      .cls-147 {
        stroke: url(#linear-gradient-45);
      }

      .cls-148 {
        stroke: url(#linear-gradient-104);
      }

      .cls-149 {
        stroke: url(#linear-gradient-56);
      }
    </style>
    <filter id="drop-shadow-1" filterUnits="userSpaceOnUse">
      <feOffset dx="7" dy="7"/>
      <feGaussianBlur result="blur" stdDeviation="5"/>
      <feFlood flood-color="#000" flood-opacity=".75"/>
      <feComposite in2="blur" operator="in"/>
      <feComposite in="SourceGraphic"/>
    </filter>
    <clipPath id="clippath">
      <circle class="cls-100" cx="148.9" cy="149.03" r="131.22"/>
    </clipPath>
    <linearGradient id="linear-gradient" x1="150.65" y1="155.35" x2="153.47" y2="152.54" gradientUnits="userSpaceOnUse">
      <stop offset="0" stop-color="#333745"/>
      <stop offset=".23" stop-color="#e63462"/>
      <stop offset=".43" stop-color="#fe5f55"/>
      <stop offset=".68" stop-color="#65c2c9"/>
      <stop offset="1" stop-color="#eef5db"/>
    </linearGradient>
    <linearGradient id="linear-gradient-2" x1="150.54" y1="155.32" x2="153.6" y2="152.27" xlink:href="#linear-gradient"/>
    <linearGradient id="linear-gradient-3" x1="149.94" y1="155.8" x2="153.98" y2="151.76" xlink:href="#linear-gradient"/>
    <linearGradient id="linear-gradient-4" x1="149.4" y1="156.41" x2="154.76" y2="151.06" xlink:href="#linear-gradient"/>
    <linearGradient id="linear-gradient-5" x1="147.66" y1="157.97" x2="156.29" y2="149.34" xlink:href="#linear-gradient"/>
    <linearGradient id="linear-gradient-6" x1="147.06" y1="158.43" x2="156.67" y2="148.82" xlink:href="#linear-gradient"/>
    <linearGradient id="linear-gradient-7" x1="146.52" y1="159.06" x2="157.45" y2="148.13" xlink:href="#linear-gradient"/>
    <linearGradient id="linear-gradient-8" x1="145.38" y1="160.14" x2="158.61" y2="146.92" xlink:href="#linear-gradient"/>
    <linearGradient id="linear-gradient-9" x1="145.38" y1="160.14" x2="158.61" y2="146.92" xlink:href="#linear-gradient"/>
    <linearGradient id="linear-gradient-10" x1="145.38" y1="160.14" x2="158.61" y2="146.92" xlink:href="#linear-gradient"/>
    <linearGradient id="linear-gradient-11" x1="141.97" y1="163.41" x2="162.08" y2="143.3" xlink:href="#linear-gradient"/>
    <linearGradient id="linear-gradient-12" x1="141.37" y1="163.88" x2="162.46" y2="142.79" xlink:href="#linear-gradient"/>
    <linearGradient id="linear-gradient-13" x1="140.23" y1="164.97" x2="163.62" y2="141.58" xlink:href="#linear-gradient"/>
    <linearGradient id="linear-gradient-14" x1="139.69" y1="165.59" x2="164.39" y2="140.89" xlink:href="#linear-gradient"/>
    <linearGradient id="linear-gradient-15" x1="137.9" y1="166.99" x2="165.54" y2="139.35" xlink:href="#linear-gradient"/>
    <linearGradient id="linear-gradient-16" x1="136.76" y1="168.07" x2="166.7" y2="138.14" xlink:href="#linear-gradient"/>
    <linearGradient id="linear-gradient-17" x1="136.17" y1="168.54" x2="167.08" y2="137.63" xlink:href="#linear-gradient"/>
    <linearGradient id="linear-gradient-18" x1="135.03" y1="169.63" x2="168.24" y2="136.42" xlink:href="#linear-gradient"/>
    <linearGradient id="linear-gradient-19" x1="133.89" y1="170.72" x2="169.4" y2="135.21" xlink:href="#linear-gradient"/>
    <linearGradient id="linear-gradient-20" x1="133.3" y1="171.18" x2="169.78" y2="134.7" xlink:href="#linear-gradient"/>
    <linearGradient id="linear-gradient-21" x1="132.12" y1="172.11" x2="170.55" y2="133.68" xlink:href="#linear-gradient"/>
    <linearGradient id="linear-gradient-22" x1="130.93" y1="173.04" x2="171.32" y2="132.65" xlink:href="#linear-gradient"/>
    <linearGradient id="linear-gradient-23" x1="129.79" y1="174.13" x2="172.48" y2="131.44" xlink:href="#linear-gradient"/>
    <linearGradient id="linear-gradient-24" x1="128.65" y1="175.22" x2="173.64" y2="130.24" xlink:href="#linear-gradient"/>
    <linearGradient id="linear-gradient-25" x1="128.06" y1="175.68" x2="174.02" y2="129.72" xlink:href="#linear-gradient"/>
    <linearGradient id="linear-gradient-26" x1="126.37" y1="177.17" x2="175.27" y2="128.27" xlink:href="#linear-gradient"/>
    <linearGradient id="linear-gradient-27" x1="125.86" y1="177.71" x2="175.73" y2="127.84" xlink:href="#linear-gradient"/>
    <linearGradient id="linear-gradient-28" x1="125.34" y1="178.25" x2="176.19" y2="127.4" xlink:href="#linear-gradient"/>
    <linearGradient id="linear-gradient-29" x1="124.31" y1="179.33" x2="177.12" y2="126.53" xlink:href="#linear-gradient"/>
    <linearGradient id="linear-gradient-30" x1="123.8" y1="179.88" x2="177.58" y2="126.1" xlink:href="#linear-gradient"/>
    <linearGradient id="linear-gradient-31" x1="123.29" y1="180.42" x2="178.04" y2="125.66" xlink:href="#linear-gradient"/>
    <linearGradient id="linear-gradient-32" x1="122.77" y1="180.96" x2="178.5" y2="125.23" xlink:href="#linear-gradient"/>
    <linearGradient id="linear-gradient-33" x1="122.26" y1="181.5" x2="178.97" y2="124.79" xlink:href="#linear-gradient"/>
    <linearGradient id="linear-gradient-34" x1="121.74" y1="182.04" x2="179.43" y2="124.36" xlink:href="#linear-gradient"/>
    <linearGradient id="linear-gradient-35" x1="121.23" y1="182.58" x2="179.89" y2="123.92" xlink:href="#linear-gradient"/>
    <linearGradient id="linear-gradient-36" x1="120.2" y1="183.67" x2="180.82" y2="123.05" xlink:href="#linear-gradient"/>
    <linearGradient id="linear-gradient-37" x1="119.69" y1="184.21" x2="181.28" y2="122.61" xlink:href="#linear-gradient"/>
    <linearGradient id="linear-gradient-38" x1="119.17" y1="184.75" x2="181.74" y2="122.18" xlink:href="#linear-gradient"/>
    <linearGradient id="linear-gradient-39" x1="118.66" y1="185.29" x2="182.21" y2="121.74" xlink:href="#linear-gradient"/>
    <linearGradient id="linear-gradient-40" x1="118.14" y1="185.83" x2="182.67" y2="121.31" xlink:href="#linear-gradient"/>
    <linearGradient id="linear-gradient-41" x1="117.63" y1="186.37" x2="183.13" y2="120.87" xlink:href="#linear-gradient"/>
    <linearGradient id="linear-gradient-42" x1="117.11" y1="186.92" x2="183.59" y2="120.44" xlink:href="#linear-gradient"/>
    <linearGradient id="linear-gradient-43" x1="116.78" y1="187.52" x2="183.89" y2="120.4" xlink:href="#linear-gradient"/>
    <linearGradient id="linear-gradient-44" x1="116.26" y1="188.06" x2="184.35" y2="119.97" xlink:href="#linear-gradient"/>
    <linearGradient id="linear-gradient-45" x1="115.93" y1="188.66" x2="184.65" y2="119.94" xlink:href="#linear-gradient"/>
    <linearGradient id="linear-gradient-46" x1="115.59" y1="189.26" x2="184.95" y2="119.9" xlink:href="#linear-gradient"/>
    <linearGradient id="linear-gradient-47" x1="115.59" y1="189.26" x2="184.95" y2="119.9" xlink:href="#linear-gradient"/>
    <linearGradient id="linear-gradient-48" x1="114.74" y1="190.4" x2="185.71" y2="119.44" xlink:href="#linear-gradient"/>
    <linearGradient id="linear-gradient-49" x1="114.74" y1="190.4" x2="185.71" y2="119.44" xlink:href="#linear-gradient"/>
    <linearGradient id="linear-gradient-50" x1="114.07" y1="191.6" x2="186.3" y2="119.37" xlink:href="#linear-gradient"/>
    <linearGradient id="linear-gradient-51" x1="113.55" y1="192.14" x2="186.76" y2="118.94" xlink:href="#linear-gradient"/>
    <linearGradient id="linear-gradient-52" x1="113.73" y1="192.2" x2="186.6" y2="119.34" xlink:href="#linear-gradient"/>
    <linearGradient id="linear-gradient-53" x1="112.88" y1="193.34" x2="187.92" y2="118.3" xlink:href="#linear-gradient"/>
    <linearGradient id="linear-gradient-54" x1="113.06" y1="193.4" x2="188.22" y2="118.24" xlink:href="#linear-gradient"/>
    <linearGradient id="linear-gradient-55" x1="112.39" y1="194.6" x2="189.84" y2="117.15" xlink:href="#linear-gradient"/>
    <linearGradient id="linear-gradient-56" x1="112.05" y1="195.2" x2="190.65" y2="116.6" xlink:href="#linear-gradient"/>
    <linearGradient id="linear-gradient-57" x1="111.38" y1="196.4" x2="192.27" y2="115.51" xlink:href="#linear-gradient"/>
    <linearGradient id="linear-gradient-58" x1="111.56" y1="196.46" x2="192.57" y2="115.45" xlink:href="#linear-gradient"/>
    <linearGradient id="linear-gradient-59" x1="110.71" y1="197.6" x2="193.89" y2="114.42" xlink:href="#linear-gradient"/>
    <linearGradient id="linear-gradient-60" x1="110.73" y1="198.32" x2="195.29" y2="113.75" xlink:href="#linear-gradient"/>
    <linearGradient id="linear-gradient-61" x1="110.06" y1="199.52" x2="196.91" y2="112.66" xlink:href="#linear-gradient"/>
    <linearGradient id="linear-gradient-62" x1="109.9" y1="200.17" x2="198.01" y2="112.06" xlink:href="#linear-gradient"/>
    <linearGradient id="linear-gradient-63" x1="109.64" y1="200.73" x2="199.02" y2="111.36" xlink:href="#linear-gradient"/>
    <linearGradient id="linear-gradient-64" x1="108.56" y1="201.52" x2="200.23" y2="109.86" xlink:href="#linear-gradient"/>
    <linearGradient id="linear-gradient-65" x1="107.97" y1="201.74" x2="200.9" y2="108.82" xlink:href="#linear-gradient"/>
    <linearGradient id="linear-gradient-66" x1="107.33" y1="201.79" x2="201.63" y2="107.49" xlink:href="#linear-gradient"/>
    <linearGradient id="linear-gradient-67" x1="106.74" y1="202.01" x2="202.29" y2="106.45" xlink:href="#linear-gradient"/>
    <linearGradient id="linear-gradient-68" x1="106.09" y1="202.06" x2="203.02" y2="105.12" xlink:href="#linear-gradient"/>
    <linearGradient id="linear-gradient-69" x1="105.01" y1="202.84" x2="204.23" y2="103.62" xlink:href="#linear-gradient"/>
    <linearGradient id="linear-gradient-70" x1="104.91" y1="202.5" x2="204.36" y2="103.05" xlink:href="#linear-gradient"/>
    <linearGradient id="linear-gradient-71" x1="104.26" y1="202.54" x2="205.09" y2="101.72" xlink:href="#linear-gradient"/>
    <linearGradient id="linear-gradient-72" x1="103.67" y1="202.77" x2="205.75" y2="100.68" xlink:href="#linear-gradient"/>
    <linearGradient id="linear-gradient-73" x1="103.19" y1="202.58" x2="205.94" y2="99.82" xlink:href="#linear-gradient"/>
    <linearGradient id="linear-gradient-74" x1="102.21" y1="203.11" x2="206.07" y2="99.25" xlink:href="#linear-gradient"/>
    <linearGradient id="linear-gradient-75" x1="100.89" y1="204.05" x2="206.74" y2="98.21" xlink:href="#linear-gradient"/>
    <linearGradient id="linear-gradient-76" x1="99.43" y1="204.84" x2="206.92" y2="97.35" xlink:href="#linear-gradient"/>
    <linearGradient id="linear-gradient-77" x1="98.11" y1="205.79" x2="207.59" y2="96.31" xlink:href="#linear-gradient"/>
    <linearGradient id="linear-gradient-78" x1="96.16" y1="206.84" x2="207.84" y2="95.16" xlink:href="#linear-gradient"/>
    <linearGradient id="linear-gradient-79" x1="94.85" y1="207.79" x2="208.51" y2="94.12" xlink:href="#linear-gradient"/>
    <linearGradient id="linear-gradient-80" x1="93.38" y1="208.58" x2="208.7" y2="93.26" xlink:href="#linear-gradient"/>
    <linearGradient id="linear-gradient-81" x1="92.4" y1="209.11" x2="208.82" y2="92.69" xlink:href="#linear-gradient"/>
    <linearGradient id="linear-gradient-82" x1="90.94" y1="209.9" x2="209.01" y2="91.83" xlink:href="#linear-gradient"/>
    <linearGradient id="linear-gradient-83" x1="89.47" y1="210.69" x2="209.2" y2="90.97" xlink:href="#linear-gradient"/>
    <linearGradient id="linear-gradient-84" x1="88.58" y1="211.3" x2="209.41" y2="90.47" xlink:href="#linear-gradient"/>
    <linearGradient id="linear-gradient-85" x1="87.7" y1="212.68" x2="210.18" y2="90.2" xlink:href="#linear-gradient"/>
    <linearGradient id="linear-gradient-86" x1="86.83" y1="214.06" x2="210.96" y2="89.93" xlink:href="#linear-gradient"/>
    <linearGradient id="linear-gradient-87" x1="85.66" y1="215.9" x2="211.99" y2="89.57" xlink:href="#linear-gradient"/>
    <linearGradient id="linear-gradient-88" x1="84.78" y1="217.28" x2="212.77" y2="89.3" xlink:href="#linear-gradient"/>
    <linearGradient id="linear-gradient-89" x1="82.79" y1="220.42" x2="214.53" y2="88.68" xlink:href="#linear-gradient"/>
    <linearGradient id="linear-gradient-90" x1="82.79" y1="220.42" x2="214.53" y2="88.68" xlink:href="#linear-gradient"/>
    <linearGradient id="linear-gradient-91" x1="81.29" y1="222.8" x2="215.87" y2="88.21" xlink:href="#linear-gradient"/>
    <linearGradient id="linear-gradient-92" x1="80.58" y1="224.35" x2="216.49" y2="88.44" xlink:href="#linear-gradient"/>
    <linearGradient id="linear-gradient-93" x1="79.87" y1="225.89" x2="217.11" y2="88.66" xlink:href="#linear-gradient"/>
    <linearGradient id="linear-gradient-94" x1="78.71" y1="227.73" x2="219.12" y2="87.32" xlink:href="#linear-gradient"/>
    <linearGradient id="linear-gradient-95" x1="78.75" y1="228.53" x2="220.7" y2="86.58" xlink:href="#linear-gradient"/>
    <linearGradient id="linear-gradient-96" x1="77.29" y1="230.82" x2="223.63" y2="84.49" xlink:href="#linear-gradient"/>
    <linearGradient id="linear-gradient-97" x1="76.88" y1="231.91" x2="225.3" y2="83.49" xlink:href="#linear-gradient"/>
    <linearGradient id="linear-gradient-98" x1="76.17" y1="233.46" x2="227.55" y2="82.08" xlink:href="#linear-gradient"/>
    <linearGradient id="linear-gradient-99" x1="75.76" y1="234.54" x2="229.21" y2="81.09" xlink:href="#linear-gradient"/>
    <linearGradient id="linear-gradient-100" x1="74.3" y1="236.84" x2="232.14" y2="79" xlink:href="#linear-gradient"/>
    <linearGradient id="linear-gradient-101" x1="74.06" y1="238.09" x2="234.3" y2="77.84" xlink:href="#linear-gradient"/>
    <linearGradient id="linear-gradient-102" x1="73.64" y1="239.18" x2="235.97" y2="76.85" xlink:href="#linear-gradient"/>
    <linearGradient id="linear-gradient-103" x1="73.21" y1="240.71" x2="238.49" y2="75.44" xlink:href="#linear-gradient"/>
    <linearGradient id="linear-gradient-104" x1="72.33" y1="241.61" x2="240.34" y2="73.6" xlink:href="#linear-gradient"/>
    <linearGradient id="linear-gradient-105" x1="70.78" y1="242.31" x2="242.08" y2="71.02" xlink:href="#linear-gradient"/>
    <linearGradient id="linear-gradient-106" x1="69.66" y1="242.68" x2="243.35" y2="68.98" xlink:href="#linear-gradient"/>
    <linearGradient id="linear-gradient-107" x1="68.26" y1="243.53" x2="244.91" y2="66.88" xlink:href="#linear-gradient"/>
    <linearGradient id="linear-gradient-108" x1="67.55" y1="243.57" x2="245.73" y2="65.39" xlink:href="#linear-gradient"/>
    <linearGradient id="linear-gradient-109" x1="67.55" y1="243.57" x2="245.73" y2="65.39" xlink:href="#linear-gradient"/>
    <linearGradient id="linear-gradient-110" x1="65.85" y1="244.12" x2="247.64" y2="62.33" xlink:href="#linear-gradient"/>
    <linearGradient id="linear-gradient-111" x1="65.7" y1="243.96" x2="247.81" y2="61.86" xlink:href="#linear-gradient"/>
    <linearGradient id="linear-gradient-112" x1="64.72" y1="244.48" x2="248.91" y2="60.3" xlink:href="#linear-gradient"/>
    <linearGradient id="linear-gradient-113" x1="64.84" y1="243.84" x2="248.8" y2="59.88" xlink:href="#linear-gradient"/>
    <linearGradient id="linear-gradient-114" x1="64.27" y1="244.03" x2="249.43" y2="58.87" xlink:href="#linear-gradient"/>
    <linearGradient id="linear-gradient-115" x1="64.12" y1="243.87" x2="249.61" y2="58.39" xlink:href="#linear-gradient"/>
    <linearGradient id="linear-gradient-116" x1="63.97" y1="243.72" x2="249.78" y2="57.91" xlink:href="#linear-gradient"/>
    <linearGradient id="linear-gradient-117" x1="63.41" y1="243.91" x2="250.42" y2="56.89" xlink:href="#linear-gradient"/>
    <linearGradient id="linear-gradient-118" x1="63.26" y1="243.75" x2="250.6" y2="56.42" xlink:href="#linear-gradient"/>
    <linearGradient id="linear-gradient-119" x1="62.69" y1="243.94" x2="251.23" y2="55.4" xlink:href="#linear-gradient"/>
    <linearGradient id="linear-gradient-120" x1="62.39" y1="243.63" x2="251.58" y2="54.45" xlink:href="#linear-gradient"/>
    <linearGradient id="linear-gradient-121" x1="61.84" y1="243.89" x2="251.76" y2="53.97" xlink:href="#linear-gradient"/>
    <linearGradient id="linear-gradient-122" x1="60.36" y1="244.76" x2="252.11" y2="53.02" xlink:href="#linear-gradient"/>
    <linearGradient id="linear-gradient-123" x1="58.88" y1="245.64" x2="252.45" y2="52.06" xlink:href="#linear-gradient"/>
    <linearGradient id="linear-gradient-124" x1="57.57" y1="246.56" x2="253.09" y2="51.04" xlink:href="#linear-gradient"/>
    <linearGradient id="linear-gradient-125" x1="55.53" y1="247.93" x2="253.9" y2="49.55" xlink:href="#linear-gradient"/>
    <linearGradient id="linear-gradient-126" x1="54.62" y1="248.31" x2="253.79" y2="49.14" xlink:href="#linear-gradient"/>
    <linearGradient id="linear-gradient-127" x1="53.88" y1="248.75" x2="253.96" y2="48.66" xlink:href="#linear-gradient"/>
    <linearGradient id="linear-gradient-128" x1="52.57" y1="249.67" x2="254.6" y2="47.64" xlink:href="#linear-gradient"/>
    <linearGradient id="linear-gradient-129" x1="51.66" y1="250.06" x2="254.49" y2="47.23" xlink:href="#linear-gradient"/>
    <linearGradient id="linear-gradient-130" x1="50.35" y1="250.98" x2="255.12" y2="46.21" xlink:href="#linear-gradient"/>
    <linearGradient id="linear-gradient-131" x1="49.44" y1="251.37" x2="255.01" y2="45.8" xlink:href="#linear-gradient"/>
    <linearGradient id="linear-gradient-132" x1="48.14" y1="252.29" x2="255.65" y2="44.78" xlink:href="#linear-gradient"/>
    <linearGradient id="linear-gradient-133" x1="47.23" y1="252.68" x2="255.53" y2="44.37" xlink:href="#linear-gradient"/>
    <linearGradient id="linear-gradient-134" x1="46.49" y1="253.12" x2="255.71" y2="43.89" xlink:href="#linear-gradient"/>
    <linearGradient id="linear-gradient-135" x1="45.18" y1="254.04" x2="256.35" y2="42.88" xlink:href="#linear-gradient"/>
    <linearGradient id="linear-gradient-136" x1="44.27" y1="254.43" x2="256.23" y2="42.46" xlink:href="#linear-gradient"/>
    <linearGradient id="linear-gradient-137" x1="42.96" y1="255.35" x2="256.87" y2="41.45" xlink:href="#linear-gradient"/>
    <linearGradient id="linear-gradient-138" x1="42.62" y1="255.25" x2="256.29" y2="41.57" xlink:href="#linear-gradient"/>
    <linearGradient id="linear-gradient-139" x1="41.49" y1="256.22" x2="257.22" y2="40.49" xlink:href="#linear-gradient"/>
    <linearGradient id="linear-gradient-140" x1="40.58" y1="256.61" x2="257.1" y2="40.08" xlink:href="#linear-gradient"/>
    <linearGradient id="linear-gradient-141" x1="39.27" y1="257.53" x2="257.74" y2="39.07" xlink:href="#linear-gradient"/>
    <linearGradient id="linear-gradient-142" x1="39.27" y1="257.53" x2="257.74" y2="39.07" xlink:href="#linear-gradient"/>
    <linearGradient id="linear-gradient-143" x1="38.53" y1="257.97" x2="257.92" y2="38.59" xlink:href="#linear-gradient"/>
    <linearGradient id="linear-gradient-144" x1="37.79" y1="258.41" x2="258.09" y2="38.11" xlink:href="#linear-gradient"/>
    <linearGradient id="linear-gradient-145" x1="37.79" y1="258.41" x2="258.09" y2="38.11" xlink:href="#linear-gradient"/>
    <linearGradient id="linear-gradient-146" x1="37.23" y1="258.9" x2="258.55" y2="37.57" xlink:href="#linear-gradient"/>
    <linearGradient id="linear-gradient-147" x1="37.06" y1="258.84" x2="258.26" y2="37.64" xlink:href="#linear-gradient"/>
    <linearGradient id="linear-gradient-148" x1="36.49" y1="259.33" x2="258.73" y2="37.1" xlink:href="#linear-gradient"/>
  </defs>
  <g id="Layer_2-2" data-name="Layer 2">
    <g class="cls-153">
      <circle class="cls-152" cx="150" cy="150" r="150"/>
      <g class="cls-151">
        <g class="cls-154">
          <g>
            <polygon class="cls-98" points="152.06 155.38 150.89 154.81 150.6 153.54 151.41 152.52 152.71 152.52 153.53 153.54 153.24 154.81 152.06 155.38"/>
            <polygon class="cls-1" points="152.81 155.38 151.36 155.4 150.43 154.27 150.73 152.85 152.04 152.19 153.36 152.81 153.7 154.22 152.81 155.38"/>
            <polygon class="cls-2" points="152.81 156.13 150.77 155.86 149.7 154.1 150.41 152.17 152.36 151.52 154.09 152.64 154.29 154.69 152.81 156.13"/>
            <polygon class="cls-24" points="153.56 156.88 150.65 156.92 148.8 154.67 149.41 151.82 152.01 150.52 154.66 151.74 155.35 154.57 153.56 156.88"/>
            <polygon class="cls-69" points="154.31 159.13 149.36 158.91 146.44 154.9 147.75 150.11 152.31 148.16 156.68 150.51 157.58 155.39 154.31 159.13"/>
            <polygon class="cls-26" points="154.31 159.88 148.77 159.38 145.7 154.73 147.43 149.44 152.64 147.48 157.42 150.34 158.16 155.86 154.31 159.88"/>
            <polygon class="cls-61" points="155.07 160.63 148.65 160.44 144.8 155.3 146.42 149.09 152.29 146.48 157.98 149.44 159.22 155.74 155.07 160.63"/>
            <polygon class="cls-130" points="155.82 162.13 147.94 161.96 143.17 155.7 145.09 148.06 152.26 144.8 159.28 148.37 160.86 156.09 155.82 162.13"/>
            <polygon class="cls-9" points="155.82 162.13 147.94 161.96 143.17 155.7 145.09 148.06 152.26 144.8 159.28 148.37 160.86 156.09 155.82 162.13"/>
            <polygon class="cls-136" points="155.82 162.13 147.94 161.96 143.17 155.7 145.09 148.06 152.26 144.8 159.28 148.37 160.86 156.09 155.82 162.13"/>
            <polygon class="cls-129" points="158.07 166.64 145.83 166.53 138.28 156.89 141.11 144.98 152.19 139.77 163.17 145.18 165.79 157.14 158.07 166.64"/>
            <polygon class="cls-67" points="158.07 167.39 145.24 167 137.55 156.72 140.78 144.3 152.51 139.09 163.9 145.01 166.37 157.6 158.07 167.39"/>
            <polygon class="cls-39" points="158.82 168.89 144.53 168.52 135.92 157.12 139.46 143.27 152.49 137.41 165.2 143.94 168.02 157.95 158.82 168.89"/>
            <polygon class="cls-121" points="159.57 169.64 144.41 169.58 135.02 157.69 138.45 142.92 152.14 136.41 165.76 143.04 169.07 157.83 159.57 169.64"/>
            <polygon class="cls-138" points="159.57 171.9 142.65 170.98 132.82 157.18 137.48 140.89 153.12 134.38 167.96 142.54 170.83 159.24 159.57 171.9"/>
            <polygon class="cls-43" points="160.32 173.4 141.95 172.5 131.19 157.58 136.15 139.87 153.09 132.7 169.26 141.48 172.48 159.59 160.32 173.4"/>
            <polygon class="cls-47" points="160.32 174.15 141.36 172.97 130.46 157.41 135.82 139.19 153.42 132.02 169.99 141.31 173.06 160.06 160.32 174.15"/>
            <polygon class="cls-27" points="161.07 175.65 140.65 174.5 128.83 157.81 134.49 138.16 153.39 130.34 171.29 140.24 174.71 160.41 161.07 175.65"/>
            <polygon class="cls-17" points="161.82 177.15 139.95 176.02 127.19 158.21 133.17 137.14 153.37 128.66 172.58 139.18 176.35 160.75 161.82 177.15"/>
            <polygon class="cls-91" points="161.82 177.9 139.36 176.49 126.46 158.04 132.84 136.46 153.69 127.99 173.32 139.01 176.93 161.22 161.82 177.9"/>
            <polygon class="cls-65" points="161.82 179.4 138.19 177.42 125 157.71 132.19 135.11 154.34 126.63 174.78 138.67 178.11 162.16 161.82 179.4"/>
            <polygon class="cls-16" points="161.82 180.91 137.01 178.36 123.53 157.37 131.54 133.75 155 125.28 176.24 138.34 179.28 163.1 161.82 180.91"/>
            <polygon class="cls-120" points="162.57 182.41 136.31 179.88 121.9 157.77 130.21 132.73 154.97 123.6 177.54 137.27 180.93 163.45 162.57 182.41"/>
            <polygon class="cls-93" points="163.33 183.91 135.6 181.41 120.27 158.17 128.88 131.7 154.95 121.92 178.84 136.21 182.57 163.79 163.33 183.91"/>
            <polygon class="cls-101" points="163.33 184.66 135.01 181.88 119.54 158 128.55 131.02 155.27 121.25 179.57 136.04 183.16 164.26 163.33 184.66"/>
            <polygon class="cls-23" points="163.33 186.91 133.25 183.28 117.34 157.5 127.58 128.99 156.25 119.22 181.77 135.54 184.92 165.67 163.33 186.91"/>
            <polygon class="cls-119" points="163.33 187.66 132.67 183.75 116.61 157.34 127.25 128.32 156.57 118.54 182.5 135.37 185.5 166.14 163.33 187.66"/>
            <polygon class="cls-5" points="163.33 188.42 132.08 184.22 115.88 157.17 126.93 127.64 156.9 117.86 183.23 135.21 186.09 166.6 163.33 188.42"/>
            <polygon class="cls-42" points="163.33 189.92 130.9 185.15 114.41 156.83 126.27 126.29 157.55 116.51 184.7 134.87 187.26 167.54 163.33 189.92"/>
            <polygon class="cls-53" points="163.33 190.67 130.32 185.62 113.68 156.67 125.95 125.61 157.88 115.83 185.43 134.7 187.85 168.01 163.33 190.67"/>
            <polygon class="cls-96" points="163.33 191.42 129.73 186.09 112.95 156.5 125.62 124.93 158.2 115.16 186.16 134.54 188.44 168.48 163.33 191.42"/>
            <polygon class="cls-82" points="163.33 192.17 129.14 186.56 112.22 156.33 125.3 124.26 158.53 114.48 186.89 134.37 189.03 168.94 163.33 192.17"/>
            <polygon class="cls-95" points="163.33 192.92 128.56 187.03 111.49 156.17 124.97 123.58 158.86 113.81 187.62 134.2 189.61 169.41 163.33 192.92"/>
            <polygon class="cls-126" points="163.33 193.67 127.97 187.49 110.75 156 124.64 122.9 159.18 113.13 188.36 134.04 190.2 169.88 163.33 193.67"/>
            <polygon class="cls-104" points="163.33 194.42 127.38 187.96 110.02 155.83 124.32 122.23 159.51 112.45 189.09 133.87 190.79 170.35 163.33 194.42"/>
            <polygon class="cls-86" points="163.33 195.92 126.21 188.9 108.56 155.5 123.67 120.87 160.16 111.1 190.55 133.53 191.96 171.29 163.33 195.92"/>
            <polygon class="cls-11" points="163.33 196.68 125.62 189.37 107.83 155.33 123.34 120.2 160.48 110.42 191.28 133.37 192.55 171.75 163.33 196.68"/>
            <polygon class="cls-70" points="163.33 197.43 125.03 189.83 107.09 155.16 123.02 119.52 160.81 109.75 192.02 133.2 193.14 172.22 163.33 197.43"/>
            <polygon class="cls-62" points="163.33 198.18 124.45 190.3 106.36 155 122.69 118.84 161.14 109.07 192.75 133.03 193.72 172.69 163.33 198.18"/>
            <polygon class="cls-135" points="163.33 198.93 123.86 190.77 105.63 154.83 122.36 118.17 161.46 108.39 193.48 132.87 194.31 173.16 163.33 198.93"/>
            <polygon class="cls-122" points="163.33 199.68 123.27 191.24 104.9 154.66 122.04 117.49 161.79 107.72 194.21 132.7 194.9 173.63 163.33 199.68"/>
            <polygon class="cls-125" points="163.33 200.43 122.68 191.71 104.17 154.49 121.71 116.81 162.11 107.04 194.94 132.53 195.48 174.09 163.33 200.43"/>
            <polygon class="cls-139" points="162.57 201.18 121.63 191.59 103.6 153.6 122.06 115.81 163.12 106.69 195.84 133.1 195.6 175.15 162.57 201.18"/>
            <polygon class="cls-123" points="162.57 201.93 121.04 192.06 102.87 153.43 121.74 115.14 163.44 106.01 196.58 132.93 196.19 175.62 162.57 201.93"/>
            <polygon class="cls-147" points="161.82 202.68 119.99 191.94 102.3 152.53 122.09 114.13 164.44 105.66 197.48 133.49 196.31 176.67 161.82 202.68"/>
            <polygon class="cls-112" points="161.07 203.43 118.93 191.82 101.74 151.63 122.44 113.13 165.45 105.31 198.37 134.06 196.43 177.73 161.07 203.43"/>
            <polygon class="cls-131" points="161.07 203.43 118.93 191.82 101.74 151.63 122.44 113.13 165.45 105.31 198.37 134.06 196.43 177.73 161.07 203.43"/>
            <polygon class="cls-48" points="160.32 204.94 117.29 192.17 100.44 150.56 122.46 111.45 166.77 104.28 200.01 134.46 197.13 179.25 160.32 204.94"/>
            <polygon class="cls-118" points="160.32 204.94 117.29 192.17 100.44 150.56 122.46 111.45 166.77 104.28 200.01 134.46 197.13 179.25 160.32 204.94"/>
            <polygon class="cls-31" points="158.82 206.44 115.18 191.93 99.31 148.77 123.17 109.45 168.78 103.58 201.8 135.59 197.37 181.36 158.82 206.44"/>
            <polygon class="cls-78" points="158.82 207.19 114.59 192.4 98.58 148.6 122.84 108.77 169.11 102.91 202.54 135.42 197.96 181.83 158.82 207.19"/>
            <polygon class="cls-54" points="158.07 207.19 114.12 191.81 98.75 147.87 123.52 108.44 169.78 103.23 202.7 136.15 197.49 182.42 158.07 207.19"/>
            <polygon class="cls-14" points="157.32 208.69 112.48 192.16 97.45 146.8 123.54 106.77 171.11 102.2 204.33 136.55 198.2 183.94 157.32 208.69"/>
            <polygon class="cls-79" points="156.57 208.69 112.01 191.57 97.62 146.07 124.22 106.44 171.79 102.53 204.5 137.28 197.73 184.53 156.57 208.69"/>
            <polygon class="cls-50" points="155.07 210.19 109.9 191.34 96.49 144.27 124.92 104.43 173.79 101.83 206.3 138.41 197.97 186.64 155.07 210.19"/>
            <polygon class="cls-149" points="154.31 210.94 108.85 191.22 95.92 143.37 125.27 103.43 174.79 101.48 207.2 138.98 198.08 187.69 154.31 210.94"/>
            <polygon class="cls-94" points="152.81 212.44 106.74 190.98 94.79 141.57 125.97 101.43 176.8 100.78 209 140.11 198.32 189.81 152.81 212.44"/>
            <polygon class="cls-15" points="152.06 212.44 106.27 190.39 94.96 140.84 126.65 101.1 177.47 101.1 209.16 140.84 197.85 190.39 152.06 212.44"/>
            <polygon class="cls-72" points="151.31 213.95 104.63 190.74 93.66 139.77 126.67 99.42 178.8 100.07 210.8 141.24 198.56 191.92 151.31 213.95"/>
            <polygon class="cls-76" points="149.06 214.7 102.63 189.45 93.43 137.41 128.38 97.77 181.16 100.38 212.03 143.27 197.74 194.15 149.06 214.7"/>
            <polygon class="cls-25" points="147.56 216.2 100.52 189.21 92.3 135.61 129.08 95.76 183.16 99.67 213.83 144.4 197.98 196.26 147.56 216.2"/>
            <polygon class="cls-105" points="146.05 216.95 99 188.5 91.9 133.98 130.11 94.44 184.84 99.65 214.89 145.69 197.63 197.9 146.05 216.95"/>
            <polygon class="cls-40" points="144.55 217.7 97.48 187.8 91.5 132.35 131.13 93.11 186.52 99.62 215.96 146.99 197.28 199.54 144.55 217.7"/>
            <polygon class="cls-7" points="143.05 219.2 95.37 187.56 90.37 130.55 131.83 91.1 188.53 98.92 217.76 148.12 197.52 201.65 143.05 219.2"/>
            <polygon class="cls-133" points="141.55 219.95 93.84 186.85 89.98 128.92 132.86 89.77 190.2 98.9 218.82 149.42 197.17 203.29 141.55 219.95"/>
            <polygon class="cls-77" points="139.3 220.71 91.85 185.56 89.75 126.56 134.57 88.12 192.56 99.2 220.06 151.45 196.35 205.52 139.3 220.71"/>
            <polygon class="cls-68" points="137.79 221.46 90.33 184.86 89.35 124.92 135.59 86.79 194.24 99.17 221.12 152.74 196 207.17 137.79 221.46"/>
            <polygon class="cls-103" points="135.54 222.21 88.34 183.56 89.12 122.56 137.3 85.14 196.59 99.47 222.36 154.77 195.19 209.39 135.54 222.21"/>
            <polygon class="cls-46" points="134.04 223.71 86.23 183.32 87.99 120.76 138 83.13 198.6 98.77 224.16 155.9 195.42 211.51 134.04 223.71"/>
            <polygon class="cls-21" points="132.54 223.71 85.29 182.15 88.32 119.3 139.35 82.48 199.95 99.42 224.49 157.37 194.49 212.68 132.54 223.71"/>
            <polygon class="cls-116" points="130.28 224.46 83.3 180.86 88.09 116.94 141.06 80.83 202.31 99.73 225.72 159.4 193.67 214.91 130.28 224.46"/>
            <polygon class="cls-108" points="128.78 225.21 81.77 180.15 87.69 115.3 142.08 79.5 203.99 99.7 226.79 160.69 193.32 216.55 128.78 225.21"/>
            <polygon class="cls-92" points="126.53 225.21 80.37 178.39 88.19 113.11 144.11 78.52 206.02 100.68 227.29 162.89 191.92 218.31 126.53 225.21"/>
            <polygon class="cls-29" points="125.03 225.21 79.43 177.22 88.53 111.64 145.47 77.87 207.37 101.33 227.63 164.35 190.98 219.49 125.03 225.21"/>
            <polygon class="cls-111" points="123.53 225.96 77.91 176.51 88.13 110.01 146.49 76.54 209.05 101.3 228.69 165.65 190.63 221.13 123.53 225.96"/>
            <polygon class="cls-12" points="121.27 225.96 76.5 174.75 88.63 107.82 148.52 75.57 211.08 102.28 229.19 167.85 189.23 222.89 121.27 225.96"/>
            <polygon class="cls-142" points="119.77 226.71 74.98 174.04 88.23 106.18 149.55 74.24 212.76 102.26 230.26 169.14 188.88 224.53 119.77 226.71"/>
            <polygon class="cls-33" points="116.77 226.71 73.11 171.69 88.9 103.26 152.26 72.93 215.46 103.56 230.93 172.07 187 226.88 116.77 226.71"/>
            <polygon class="cls-57" points="115.27 227.46 71.58 170.99 88.5 101.63 153.28 71.61 217.14 103.54 231.99 173.37 186.66 228.52 115.27 227.46"/>
            <polygon class="cls-132" points="113.01 227.46 70.18 169.23 89.01 99.43 155.31 70.63 219.17 104.51 232.5 175.57 185.25 230.28 113.01 227.46"/>
            <polygon class="cls-88" points="111.51 227.46 69.24 168.05 89.34 97.96 156.67 69.98 220.52 105.16 232.83 177.03 184.31 231.46 111.51 227.46"/>
            <polygon class="cls-41" points="109.26 227.46 67.84 166.29 89.84 95.77 158.7 69 222.55 106.14 233.33 179.23 182.91 233.22 109.26 227.46"/>
            <polygon class="cls-44" points="107.01 227.46 66.43 164.53 90.34 93.57 160.73 68.02 224.58 107.12 233.83 181.42 181.51 234.98 107.01 227.46"/>
            <polygon class="cls-89" points="105.5 227.46 65.5 163.36 90.68 92.11 162.08 67.37 225.94 107.77 234.17 182.89 180.57 236.16 105.5 227.46"/>
            <polygon class="cls-71" points="103.25 227.46 64.09 161.59 91.18 89.91 164.11 66.39 227.97 108.75 234.67 185.08 179.16 237.92 103.25 227.46"/>
            <polygon class="cls-114" points="101 227.46 62.69 159.83 91.68 87.72 166.14 65.42 230 109.73 235.17 187.28 177.76 239.68 101 227.46"/>
            <polygon class="cls-37" points="98 227.46 60.82 157.49 92.35 84.79 168.84 64.11 232.7 111.03 235.84 190.21 175.89 242.03 98 227.46"/>
            <polygon class="cls-128" points="95.74 227.46 59.41 155.72 92.85 82.59 170.87 63.13 234.73 112.01 236.34 192.4 174.48 243.79 95.74 227.46"/>
            <polygon class="cls-10" points="90.62 227.46 56.22 151.72 93.99 77.6 175.49 60.91 239.35 114.23 237.48 197.4 171.29 247.79 90.62 227.46"/>
            <polygon class="cls-63" points="90.62 227.46 56.22 151.72 93.99 77.6 175.49 60.91 239.35 114.23 237.48 197.4 171.29 247.79 90.62 227.46"/>
            <polygon class="cls-74" points="86.73 227.46 53.79 148.68 94.85 73.81 178.99 59.23 242.85 115.92 238.34 201.19 168.86 250.83 86.73 227.46"/>
            <polygon class="cls-66" points="83.73 226.71 52.51 145.86 96.25 71.04 182.02 58.6 245.23 117.9 238.28 204.29 166.4 252.71 83.73 226.71"/>
            <polygon class="cls-143" points="80.72 225.96 51.22 143.05 97.65 68.28 185.06 57.97 247.61 119.88 238.22 207.38 163.94 254.59 80.72 225.96"/>
            <polygon class="cls-64" points="77.72 225.96 49.35 140.7 98.32 65.35 187.76 56.67 250.32 121.18 238.88 210.31 162.07 256.94 77.72 225.96"/>
            <polygon class="cls-55" points="75.47 224.46 49.12 138 100.29 63.49 190.44 57.04 251.7 123.51 237.92 212.84 159.49 257.77 75.47 224.46"/>
            <polygon class="cls-97" points="71.71 224.46 46.78 135.06 101.12 59.83 193.83 55.42 255.08 125.14 238.76 216.5 157.15 260.7 71.71 224.46"/>
            <polygon class="cls-102" points="69.46 223.71 45.96 132.83 102.36 57.8 196.18 55.11 256.78 126.79 238.53 218.86 155.16 262 69.46 223.71"/>
            <polygon class="cls-81" points="66.46 222.96 44.68 130.02 103.76 55.04 199.21 54.49 259.16 128.77 238.46 221.96 152.7 263.88 66.46 222.96"/>
            <polygon class="cls-99" points="64.2 222.21 43.86 127.79 104.99 53.01 201.57 54.19 260.87 130.43 238.23 224.32 150.71 265.17 64.2 222.21"/>
            <polygon class="cls-52" points="60.45 222.21 41.52 124.85 105.83 49.35 204.95 52.56 264.25 132.06 239.07 227.98 148.37 268.1 60.45 222.21"/>
            <polygon class="cls-60" points="57.45 220.71 40.82 121.57 107.96 46.76 208.31 52.61 266.3 134.71 238.27 231.25 145.32 269.52 57.45 220.71"/>
            <polygon class="cls-58" points="55.19 219.95 40 119.34 109.19 44.73 210.67 52.31 268.01 136.37 238.04 233.61 143.33 270.81 55.19 219.95"/>
            <polygon class="cls-75" points="51.72 218.45 39.01 115.69 111.43 41.68 214.45 52.15 270.49 139.23 237.35 237.33 139.99 272.59 51.72 218.45"/>
            <polygon class="cls-148" points="48.43 216.95 38.14 112.18 113.62 38.81 218.06 52.08 272.79 142 236.62 240.87 136.77 274.22 48.43 216.95"/>
            <polygon class="cls-28" points="44.68 215.45 36.97 108.31 115.92 35.48 222.09 51.8 275.53 144.99 235.99 244.86 133.25 276.22 44.68 215.45"/>
            <polygon class="cls-18" points="41.68 213.95 36.27 105.03 118.06 32.89 225.45 51.85 277.58 147.64 235.19 248.12 130.2 277.63 41.68 213.95"/>
            <polygon class="cls-83" points="38.67 213.2 34.98 102.21 119.46 30.13 228.48 51.23 279.96 149.62 235.13 251.22 127.74 279.51 38.67 213.2"/>
            <polygon class="cls-109" points="36.42 211.69 34.75 99.51 121.42 28.26 231.16 51.6 281.34 151.95 234.17 253.75 125.17 280.34 36.42 211.69"/>
            <polygon class="cls-107" points="36.42 211.69 34.75 99.51 121.42 28.26 231.16 51.6 281.34 151.95 234.17 253.75 125.17 280.34 36.42 211.69"/>
            <polygon class="cls-113" points="31.91 209.44 33.71 94.58 124.62 24.37 236.2 51.68 284.42 155.94 232.97 258.64 120.6 282.45 31.91 209.44"/>
            <polygon class="cls-35" points="31.16 208.69 33.82 93.53 125.52 23.81 237.2 52.03 284.77 156.94 232.41 259.54 119.54 282.57 31.16 208.69"/>
            <polygon class="cls-87" points="28.91 207.94 33.01 91.3 126.75 21.78 239.56 51.73 286.47 158.59 232.18 261.91 117.55 283.87 28.91 207.94"/>
            <polygon class="cls-127" points="28.16 206.44 33.71 89.78 128.39 21.38 240.89 52.76 286.5 160.27 230.88 262.97 115.91 283.52 28.16 206.44"/>
            <polygon class="cls-84" points="26.66 205.69 33.36 88.13 129.45 20.08 242.57 52.78 287.53 161.6 230.48 264.6 114.38 284.22 26.66 205.69"/>
            <polygon class="cls-115" points="25.91 204.94 33.48 87.08 130.35 19.52 243.57 53.13 287.88 162.6 229.92 265.5 113.33 284.34 25.91 204.94"/>
            <polygon class="cls-56" points="25.16 204.18 33.6 86.02 131.25 18.95 244.57 53.48 288.23 163.61 229.35 266.4 112.27 284.46 25.16 204.18"/>
            <polygon class="cls-140" points="23.65 203.43 33.25 84.38 132.32 17.66 246.25 53.51 289.26 164.93 228.95 268.03 110.75 285.17 23.65 203.43"/>
            <polygon class="cls-51" points="22.9 202.68 33.37 83.33 133.22 17.09 247.25 53.86 289.61 165.94 228.39 268.93 109.69 285.29 22.9 202.68"/>
            <polygon class="cls-38" points="21.4 201.93 33.02 81.68 134.28 15.79 248.93 53.88 290.63 167.26 227.99 270.56 108.17 285.99 21.4 201.93"/>
            <polygon class="cls-19" points="19.9 200.43 33.26 79.57 136.08 14.66 250.93 54.58 291.34 169.27 226.86 272.36 106.06 286.23 19.9 200.43"/>
            <polygon class="cls-144" points="19.15 199.68 33.38 78.52 136.98 14.1 251.94 54.93 291.69 170.27 226.29 273.26 105 286.35 19.15 199.68"/>
            <polygon class="cls-59" points="17.65 198.18 33.62 76.41 138.78 12.97 253.94 55.64 292.39 172.28 225.16 275.06 102.89 286.59 17.65 198.18"/>
            <polygon class="cls-85" points="16.14 196.68 33.85 74.3 140.58 11.84 255.95 56.34 293.09 174.28 224.03 276.86 100.78 286.82 16.14 196.68"/>
            <polygon class="cls-124" points="14.64 195.92 33.51 72.65 141.64 10.54 257.63 56.36 294.12 175.61 223.64 278.49 99.26 287.53 14.64 195.92"/>
            <polygon class="cls-80" points="12.39 194.42 33.27 69.96 143.61 8.68 260.31 56.74 295.49 177.94 222.67 281.02 96.68 288.35 12.39 194.42"/>
            <polygon class="cls-134" points="11.64 192.92 33.98 68.43 145.24 8.28 261.64 57.77 295.52 179.62 221.38 282.09 95.04 288.01 11.64 192.92"/>
            <polygon class="cls-6" points="10.89 192.17 34.1 67.38 146.14 7.72 262.64 58.12 295.87 180.62 220.81 282.98 93.98 288.12 10.89 192.17"/>
            <polygon class="cls-13" points="9.39 191.42 33.75 65.74 147.2 6.42 264.32 58.14 296.9 181.95 220.41 284.62 92.46 288.83 9.39 191.42"/>
            <polygon class="cls-4" points="8.64 189.92 34.46 64.21 148.84 6.02 265.64 59.17 296.92 183.63 219.12 285.68 90.82 288.48 8.64 189.92"/>
            <polygon class="cls-36" points="7.13 189.17 34.11 62.57 149.9 4.73 267.32 59.19 297.95 184.96 218.72 287.31 89.29 289.19 7.13 189.17"/>
            <polygon class="cls-117" points="6.38 187.66 34.81 61.05 151.53 4.33 268.65 60.22 297.97 186.64 217.42 288.38 87.65 288.84 6.38 187.66"/>
            <polygon class="cls-30" points="4.88 186.91 34.46 59.4 152.6 3.03 270.33 60.25 299 187.96 217.02 290.01 86.13 289.54 4.88 186.91"/>
            <polygon class="cls-20" points="4.13 185.41 35.17 57.88 154.23 2.63 271.66 61.27 299.03 189.64 215.73 291.08 84.49 289.19 4.13 185.41"/>
            <polygon class="cls-49" points="3.38 184.66 35.29 56.82 155.13 2.07 272.66 61.62 299.38 190.65 215.16 291.98 83.43 289.31 3.38 184.66"/>
            <polygon class="cls-8" points="1.88 183.91 34.94 55.18 156.2 .77 274.34 61.65 300.4 191.97 214.76 293.61 81.91 290.02 1.88 183.91"/>
            <polygon class="cls-141" points="1.13 182.41 35.65 53.66 157.83 .37 275.67 62.68 300.43 193.65 213.47 294.67 80.26 289.67 1.13 182.41"/>
            <polygon class="cls-106" points="-.38 181.66 35.3 52.02 158.89 -.92 277.35 62.7 301.46 194.98 213.07 296.31 78.74 290.38 -.38 181.66"/>
            <polygon class="cls-73" points="-.38 180.16 36.47 51.08 160.36 -.59 278 64.05 300.81 196.33 211.6 296.64 77.57 289.44 -.38 180.16"/>
            <polygon class="cls-22" points="-1.88 180.16 35.53 49.91 160.69 -2.05 279.35 63.4 302.16 196.99 211.94 298.1 76.63 290.61 -1.88 180.16"/>
            <polygon class="cls-3" points="-2.63 178.65 36.24 48.38 162.32 -2.45 280.68 64.43 302.18 198.66 210.64 299.17 74.99 290.26 -2.63 178.65"/>
            <polygon class="cls-45" points="-4.13 177.9 35.89 46.74 163.39 -3.75 282.36 64.45 303.21 199.99 210.24 300.8 73.46 290.97 -4.13 177.9"/>
            <polygon class="cls-146" points="-4.13 177.9 35.89 46.74 163.39 -3.75 282.36 64.45 303.21 199.99 210.24 300.8 73.46 290.97 -4.13 177.9"/>
            <polygon class="cls-137" points="-4.88 177.15 36.01 45.68 164.29 -4.31 283.36 64.81 303.56 200.99 209.68 301.7 72.41 291.09 -4.88 177.15"/>
            <polygon class="cls-34" points="-5.63 176.4 36.13 44.63 165.19 -4.88 284.36 65.16 303.91 202 209.11 302.6 71.35 291.21 -5.63 176.4"/>
            <polygon class="cls-110" points="-5.63 176.4 36.13 44.63 165.19 -4.88 284.36 65.16 303.91 202 209.11 302.6 71.35 291.21 -5.63 176.4"/>
            <polygon class="cls-145" points="-6.38 176.4 35.66 44.04 165.36 -5.61 285.04 64.83 304.59 202.32 209.28 303.33 70.89 291.8 -6.38 176.4"/>
            <polygon class="cls-90" points="-6.38 175.65 36.25 43.57 166.09 -5.44 285.37 65.51 304.26 203 208.55 303.5 70.3 291.33 -6.38 175.65"/>
            <polygon class="cls-32" points="-7.13 175.65 35.78 42.99 166.25 -6.18 286.04 65.18 304.94 203.33 208.72 304.23 69.83 291.91 -7.13 175.65"/>
          </g>
        </g>
      </g>
      <g>
        <path class="cls-152" d="M51.96,136.98v6.59c0,1.74-1.41,3.15-3.15,3.15h-13.33c-1.74,0-3.16,1.41-3.16,3.15v11.93c0,1.36,.25,2.64,.76,3.82,.51,1.19,1.2,2.22,2.09,3.11s1.93,1.58,3.13,2.11c1.2,.52,2.48,.78,3.84,.78h6.67c1.74,0,3.15,1.41,3.15,3.15v6.6c0,1.74-1.41,3.15-3.15,3.15h-6.67c-3.13,0-6.07-.6-8.82-1.78-2.75-1.19-5.16-2.81-7.23-4.88-2.07-2.07-3.7-4.48-4.89-7.23s-1.78-5.69-1.78-8.82v-11.93c0-1.74-1.41-3.15-3.15-3.15-.87,0-1.66-.35-2.23-.92-.57-.57-.92-1.36-.92-2.23v-6.59c0-1.74,1.41-3.15,3.15-3.15,.87,0,1.66-.35,2.23-.92,.57-.57,.93-1.36,.93-2.23v-13.99c0-1.74,1.41-3.15,3.15-3.15h6.59c1.74,0,3.15,1.41,3.15,3.15v13.99c0,1.74,1.41,3.15,3.16,3.15h13.33c1.74,0,3.15,1.41,3.15,3.15Z"/>
        <path class="cls-152" d="M158.94,157.01c-.06-.98-.18-1.95-.36-2.9-.46-2.44-1.32-4.79-2.63-7.05-.56-1.18-1.26-2.26-2.14-3.23-.89-1.23-1.89-2.33-3.08-3.28-.19-.14-.4-.25-.56-.41-1.19-1.25-2.65-2.11-4.14-2.91-1.72-.91-3.49-1.72-5.41-2.17-.32-.09-.63-.16-.95-.26-1.03-.34-2.16-.26-3.18-.68h-4.68c-.07,.05-.13,.14-.2,.16-3.23,.37-6.18,1.56-8.98,3.17-6.09,3.49-10.99,8.35-15.54,13.6-2.05-2.12-4.01-4.29-6.17-6.29-4.25-3.92-8.74-7.48-14.25-9.51-1.38-.51-2.83-.68-4.2-1.12h-4.32c-.9,.33-1.86,.31-2.79,.52-8.87,2.05-15.12,7.19-18.57,15.66-.13,.31-.31,.63-.28,.98,0,.04,0,.09,.01,.13,0,0,.01-.01,.02-.01,.51-.43,.74-1.07,1.11-1.59,3.22-4.37,7.63-6.59,12.94-7.19,1.98-.31,3.97-.32,5.95,.02,1.49,.29,2.99,.52,4.37,1.22,3.32,1.05,6.24,2.86,9.04,4.88,3.21,2.31,5.76,5.33,8.51,8.12,.66,.66,1.26,1.35,1.88,2.04,2.35,2.37,4.63,4.8,6.83,7.32,1.96,2.01,3.85,4.11,5.91,6.04,3.38,3.16,6.96,6.04,11.07,8.25,5.95,3.19,12.09,3.39,18.33,1.08,7.09-2.62,12.12-7.45,14.94-14.51,.12-.32,.31-.62,.31-.97,0-.03,0-.07,0-.1,0-.02,0-.03,0-.05,.71-1.7,1.02-3.5,1.15-5.32,.1-1.23,.11-2.44,.04-3.63Zm-15.22,12.7c-2.88,2.56-6.37,3.61-10.17,3.75-3.22-.98-6.06-2.7-8.8-4.6-3.34-2.29-5.94-5.39-8.77-8.23-.7-.73-1.38-1.49-2.07-2.25,3-3.5,6.15-6.88,9.79-9.75,2.51-1.98,5.17-3.66,8.28-4.55,2.4-.4,4.73,0,7.03,.69,1.68,.71,3.26,1.59,4.71,2.71,.05,.04,.09,.08,.14,.12,.05,.05,.1,.1,.16,.16,.87,.91,1.73,1.81,2.46,2.84,.69,1.13,1.28,2.31,1.73,3.56,.05,.15,.08,.29,.11,.44,1.53,5.97-.04,11.03-4.61,15.12Z"/>
        <path class="cls-152" d="M231.92,144.69c1.01,2.37,1.52,4.9,1.52,7.59v30.08c0,1.2-.97,2.17-2.17,2.17h-8.56c-1.2,0-2.17-.97-2.17-2.17v-30.08c0-.89-.17-1.72-.5-2.51-.33-.79-.8-1.49-1.4-2.09-.6-.6-1.3-1.07-2.09-1.4-.79-.33-1.63-.5-2.52-.5s-1.71,.17-2.49,.5c-.77,.33-1.46,.8-2.03,1.4-.59,.6-1.05,1.29-1.38,2.09-.33,.79-.5,1.63-.5,2.51v30.08c0,1.2-.97,2.17-2.17,2.17h-8.61c-1.2,0-2.17-.97-2.17-2.17v-30.08c0-.89-.17-1.72-.5-2.51-.33-.79-.8-1.49-1.4-2.09-.6-.6-1.3-1.07-2.09-1.4-.79-.33-1.63-.5-2.52-.5s-1.71,.17-2.49,.5c-.77,.33-1.46,.8-2.04,1.4-.58,.6-1.04,1.29-1.37,2.09-.33,.79-.5,1.63-.5,2.51v30.08c0,1.2-.97,2.17-2.17,2.17h-8.61c-1.2,0-2.16-.97-2.16-2.17v-46.45c0-1.2,.97-2.16,2.16-2.16,.62,0,1.2,.26,1.61,.71l1.53,1.69c.72,.8,1.94,.96,2.83,.34,1.39-.98,2.88-1.77,4.46-2.39,2.16-.84,4.42-1.26,6.76-1.26s4.69,.45,6.95,1.33c1.62,.63,3.09,1.6,4.43,2.89,.84,.81,2.17,.81,3.01,0,.38-.37,.79-.72,1.22-1.04,1.01-.76,2.08-1.37,3.2-1.85,1.12-.48,2.28-.81,3.48-1.02,1.2-.21,2.39-.31,3.56-.31,2.69,0,5.21,.51,7.56,1.52,2.36,1.01,4.41,2.39,6.17,4.15,1.75,1.76,3.14,3.82,4.15,6.19Z"/>
        <path class="cls-152" d="M286.88,168.4c0,2.25-.42,4.34-1.28,6.29-.85,1.95-2.01,3.65-3.46,5.12-1.45,1.47-3.16,2.62-5.12,3.46-1.96,.84-4.05,1.26-6.26,1.26h-23.14c-3.56,0-6.45-2.89-6.45-6.45,0-1.78,.72-3.4,1.89-4.56,1.17-1.16,2.78-1.89,4.56-1.89h23.14c.89,0,1.64-.32,2.27-.95,.63-.63,.95-1.39,.95-2.28s-.32-1.52-.95-1.8-1.39-.42-2.27-.42h-13.47c-2.24,0-4.34-.43-6.31-1.28-1.96-.85-3.67-2.02-5.12-3.49-1.45-1.47-2.6-3.18-3.44-5.15-.84-1.96-1.26-4.06-1.26-6.31s.42-4.34,1.26-6.31c.83-1.96,1.98-3.67,3.44-5.12,1.46-1.45,3.16-2.6,5.12-3.44,1.96-.84,4.06-1.26,6.31-1.26h19.78c3.56,0,6.45,2.89,6.45,6.45,0,1.78-.72,3.39-1.89,4.56-1.17,1.17-2.78,1.89-4.56,1.89h-19.78c-.89,0-1.64,.32-2.27,.95-.64,.63-.95,1.39-.95,2.27s.32,1.7,.95,2.35c.63,.65,1.39,.97,2.27,.97h13.47c2.21,0,4.3,.37,6.26,1.12,1.96,.74,3.67,1.78,5.12,3.11,1.46,1.33,2.61,2.93,3.46,4.79,.85,1.86,1.28,3.9,1.28,6.11Z"/>
        <path class="cls-155" d="M35.48,146.73h13.33c1.74,0,3.15-1.41,3.15-3.15v-6.59c0-1.74-1.41-3.15-3.15-3.15h-13.33c-1.74,0-3.16-1.41-3.16-3.15v-13.99c0-1.74-1.41-3.15-3.15-3.15h-6.59c-1.74,0-3.15,1.41-3.15,3.15v13.99c0,.87-.35,1.66-.93,2.23-.57,.57-1.36,.92-2.23,.92-1.74,0-3.15,1.41-3.15,3.15v6.59c0,.87,.35,1.66,.92,2.23,.57,.57,1.36,.92,2.23,.92,1.74,0,3.15,1.41,3.15,3.15v11.93c0,3.13,.59,6.07,1.78,8.82s2.82,5.16,4.89,7.23c2.07,2.07,4.48,3.7,7.23,4.88,2.75,1.19,5.69,1.78,8.82,1.78h6.67c1.74,0,3.15-1.41,3.15-3.15v-6.6c0-1.74-1.41-3.15-3.15-3.15h-6.67c-1.36,0-2.64-.26-3.84-.78-1.21-.52-2.25-1.22-3.13-2.11s-1.58-1.92-2.09-3.11c-.51-1.19-.76-2.46-.76-3.82v-11.93c0-1.74,1.41-3.15,3.16-3.15Z"/>
        <path class="cls-155" d="M231.92,144.69c-1.01-2.37-2.4-4.43-4.15-6.19-1.76-1.76-3.81-3.14-6.17-4.15-2.36-1.01-4.88-1.52-7.56-1.52-1.17,0-2.36,.1-3.56,.31-1.2,.21-2.36,.54-3.48,1.02-1.12,.48-2.19,1.09-3.2,1.85-.42,.32-.83,.67-1.22,1.04-.84,.82-2.17,.82-3.01,0-1.34-1.29-2.81-2.26-4.43-2.89-2.26-.89-4.58-1.33-6.95-1.33s-4.59,.42-6.76,1.26c-1.58,.62-3.08,1.41-4.46,2.39-.89,.62-2.1,.47-2.83-.34l-1.53-1.69c-.41-.46-.99-.71-1.61-.71-1.2,0-2.16,.97-2.16,2.16v46.45c0,1.2,.97,2.17,2.16,2.17h8.61c1.2,0,2.17-.97,2.17-2.17v-30.08c0-.89,.17-1.72,.5-2.51,.33-.79,.79-1.49,1.37-2.09,.58-.6,1.27-1.07,2.04-1.4,.78-.33,1.6-.5,2.49-.5s1.72,.17,2.52,.5c.79,.33,1.49,.8,2.09,1.4,.6,.6,1.07,1.29,1.4,2.09,.33,.79,.5,1.63,.5,2.51v30.08c0,1.2,.97,2.17,2.17,2.17h8.61c1.2,0,2.17-.97,2.17-2.17v-30.08c0-.89,.17-1.72,.5-2.51,.33-.79,.79-1.49,1.38-2.09,.58-.6,1.26-1.07,2.03-1.4,.78-.33,1.6-.5,2.49-.5s1.72,.17,2.52,.5c.79,.33,1.49,.8,2.09,1.4,.6,.6,1.07,1.29,1.4,2.09,.33,.79,.5,1.63,.5,2.51v30.08c0,1.2,.97,2.17,2.17,2.17h8.56c1.2,0,2.17-.97,2.17-2.17v-30.08c0-2.69-.51-5.22-1.52-7.59Z"/>
        <path class="cls-155" d="M285.6,162.28c-.85-1.86-2.01-3.46-3.46-4.79-1.45-1.33-3.16-2.37-5.12-3.11-1.96-.75-4.05-1.12-6.26-1.12h-13.47c-.89,0-1.64-.32-2.27-.97-.64-.65-.95-1.43-.95-2.35s.32-1.64,.95-2.27c.63-.64,1.39-.95,2.27-.95h19.78c1.78,0,3.39-.72,4.56-1.89,1.17-1.16,1.89-2.77,1.89-4.56,0-3.56-2.89-6.45-6.45-6.45h-19.78c-2.24,0-4.34,.42-6.31,1.26-1.96,.83-3.67,1.98-5.12,3.44-1.45,1.45-2.6,3.16-3.44,5.12-.84,1.96-1.26,4.06-1.26,6.31s.42,4.35,1.26,6.31c.83,1.96,1.98,3.68,3.44,5.15,1.46,1.47,3.16,2.64,5.12,3.49,1.96,.85,4.06,1.28,6.31,1.28h13.47c.89,0,1.64,.14,2.27,.42s.95,.89,.95,1.8-.32,1.65-.95,2.28c-.63,.63-1.39,.95-2.27,.95h-23.14c-1.78,0-3.39,.72-4.56,1.89-1.17,1.16-1.89,2.78-1.89,4.56,0,3.56,2.89,6.45,6.45,6.45h23.14c2.21,0,4.3-.42,6.26-1.26,1.96-.84,3.67-1.99,5.12-3.46,1.46-1.47,2.61-3.17,3.46-5.12,.85-1.94,1.28-4.04,1.28-6.29s-.42-4.25-1.28-6.11Z"/>
        <path class="cls-155" d="M158.94,157.01c-.06-.98-.18-1.95-.36-2.9-.47-2.42-1.33-4.76-2.62-7-.56-1.17-1.26-2.26-2.14-3.23-.89-1.23-1.89-2.33-3.08-3.28-.19-.14-.4-.25-.56-.41-1.19-1.25-2.65-2.11-4.14-2.91-1.72-.91-3.49-1.72-5.41-2.17-.32-.09-.63-.16-.95-.26-1.03-.34-2.16-.26-3.18-.68h-4.68c-.07,.05-.13,.15-.2,.16-3.23,.37-6.18,1.56-8.98,3.17-6.09,3.49-10.99,8.35-15.54,13.6-2.05-2.12-4.01-4.29-6.17-6.29-4.25-3.92-8.74-7.48-14.25-9.51-1.38-.51-2.83-.68-4.2-1.12h-4.32c-.9,.33-1.86,.31-2.79,.52-8.87,2.05-15.12,7.19-18.57,15.66-.12,.3-.29,.6-.29,.94,0,.04,0,.09,.01,.13,0,.02,0,.03,0,.05,0,0,.01-.01,.02-.01,.51-.43,.74-1.07,1.11-1.59,3.22-4.37,7.63-6.59,12.94-7.19,1.98-.31,3.97-.32,5.95,.02,1.49,.29,2.99,.52,4.37,1.22,3.32,1.05,6.24,2.86,9.04,4.88,3.21,2.31,5.76,5.33,8.51,8.12,.66,.66,1.26,1.35,1.88,2.04,2.35,2.37,4.63,4.8,6.83,7.32,1.96,2.01,3.85,4.11,5.91,6.04,3.38,3.16,6.96,6.04,11.07,8.25,5.95,3.19,12.09,3.39,18.33,1.08,7.09-2.62,12.12-7.45,14.94-14.51,.13-.33,.33-.64,.31-1.01,0-.03,0-.07,0-.1,.71-1.7,1.02-3.5,1.15-5.32,.1-1.25,.11-2.47,.04-3.68Zm-35.22-8.38c2.51-1.98,5.17-3.66,8.28-4.55,2.4-.4,4.73,0,7.03,.69,1.68,.71,3.26,1.59,4.71,2.71,.05,.04,.09,.08,.14,.12,.05,.05,.1,.1,.16,.16,.87,.91,1.73,1.81,2.46,2.84,.69,1.13,1.28,2.31,1.73,3.56,.05,.15,.08,.29,.11,.44,1.53,5.97-.04,11.03-4.61,15.12-2.88,2.56-6.37,3.61-10.17,3.75-3.22-.98-6.06-2.7-8.8-4.6-3.34-2.29-5.94-5.39-8.77-8.23-.7-.73-1.38-1.49-2.07-2.25,3-3.5,6.15-6.88,9.79-9.75Z"/>
        <path class="cls-150" d="M146.33,183.35c.36,.7,1.09,1.18,1.93,1.18h8.56c1.2,0,2.17-.97,2.17-2.17v-11.18c-2.84,5.43-7.08,9.51-12.66,12.18Z"/>
        <path class="cls-150" d="M99.61,173.51l-4.62-4.67c-1.34-1.35-3.52-1.22-4.74,.22-.01,.01-.02,.02-.03,.03-.8,.93-1.71,1.72-2.73,2.37-1.01,.65-2.11,1.14-3.27,1.49-1.16,.35-2.37,.52-3.62,.52-.08,0-.16,0-.24,0-.42,0-.84-.03-1.26-.07-.5-.05-1-.15-1.5-.31l14.84-18.03c-1.37-1.4-2.75-2.7-4.29-3.8-1.53-1.1-3.27-2.27-5.19-3.23l-13.73,18.37c-.25-.44-.46-.95-.62-1.52-.16-.57-.29-1.16-.4-1.78-.11-.62-.19-1.23-.23-1.83-.05-.6-.07-1.14-.07-1.61,0-2.12,.33-4.02,.98-5.72,.66-1.69,1.56-3.14,2.71-4.34,.27-.28,.55-.55,.84-.8,.1-.08,.2-.17,.3-.24,.57-.47,1.19-.87,1.84-1.22,0,0,.02-.01,.03-.02,.34-.18,.68-.34,1.04-.49,.77-.32,1.57-.56,2.4-.72-.49-.12-1.02-.22-1.58-.33l-.46-.09c-.8-.13-1.63-.2-2.45-.2s-1.65,.06-2.48,.19c-.04,.01-.08,.02-.12,.02-4.71,.53-8.23,2.47-10.79,5.94-.02,.03-.1,.17-.17,.28-.27,.48-.69,1.2-1.43,1.84-.09,.08-.19,.15-.3,.22-.51,.35-1.12,.53-1.73,.53-.3,0-.6-.04-.9-.13-.1-.03-.21-.07-.31-.11-.3,1.72-.45,3.52-.45,5.39,0,3.92,.67,7.51,2.02,10.78,1.3,3.18,3.08,5.93,5.31,8.25,.07,.07,.14,.15,.21,.22,2.34,2.37,5.06,4.22,8.18,5.54,2.43,1.04,4.98,1.66,7.66,1.89,.12,.01,.24,.02,.37,.03,.43,.03,.87,.05,1.31,.06,.16,0,.32,0,.47,0h.19c.1,0,.19,0,.29,0,1.47-.01,2.93-.15,4.35-.41,.03,0,.05-.01,.08-.02,.48-.09,.95-.19,1.43-.31,1.98-.49,3.89-1.21,5.69-2.16,1.8-.95,3.48-2.1,5.03-3.46,.8-.7,1.55-1.44,2.25-2.23,1.12-1.26,1.08-3.17-.11-4.37Z"/>
      </g>
    </g>
  </g>
</svg>